<?xml version="1.0" encoding="utf-8"?>
<!-- Generator: Adobe Illustrator 21.0.2, SVG Export Plug-In . SVG Version: 6.00 Build 0)  -->
<svg version="1.1" id="Layer_1" xmlns="http://www.w3.org/2000/svg" xmlns:xlink="http://www.w3.org/1999/xlink" x="0px" y="0px"
	 viewBox="0 0 306.3 113.2" style="enable-background:new 0 0 306.3 113.2;" xml:space="preserve">
<style type="text/css">
	.st0{fill:#B5B5B5;}
</style>
<g>
	<path class="st0" d="M13.2,52.9c-1.6,0.9-3.1,1.8-4.6,2.9C5.1,58.5,0,55.9,0,51.5C0,36.1,0,20.8,0,5.4C0,2.4,2.4,0,5.4,0
		c13.5,0,27,0,40.5,0.1c31.2,0,56.6,25.3,56.6,56.6c0,31.2-25.3,56.6-56.6,56.6c-5.5,0-10.9,0-16.4,0C13.2,113.2,0,100,0,83.7
		c0-16.3,13.2-29.5,29.5-29.5c4.5,0,8.9,0,13.4,0c3,0,5.4,2.4,5.4,5.4c0,1.8,0,3.5,0,5.3c0,3-2.4,5.4-5.4,5.4c-4.5,0-8.9,0-13.4,0
		c-7.4,0-13.4,6-13.4,13.4s6,13.4,13.4,13.4c5.5,0,10.9,0,16.4,0c22.4,0,40.5-18.1,40.5-40.5c0-22.4-18.1-40.5-40.5-40.5
		c-9.9,0-19.8,0-29.8,0c0,10.7,0,21.3,0,32C16.1,50.1,15,52,13.2,52.9z"/>
	<g>
		<path class="st0" d="M148.8,36.7c0,2.5-0.4,4.9-1.3,7c-0.9,2.1-2.1,4-3.7,5.5s-3.5,2.8-5.7,3.6c-2.2,0.9-4.7,1.3-7.4,1.3h-13.6
			v-35h13.6c2.7,0,5.2,0.4,7.4,1.3s4.1,2.1,5.7,3.6s2.8,3.4,3.7,5.5C148.4,31.8,148.8,34.2,148.8,36.7z M140.5,36.7
			c0-1.7-0.2-3.3-0.7-4.7c-0.4-1.4-1.1-2.6-1.9-3.5c-0.8-1-1.9-1.7-3.1-2.2s-2.6-0.8-4.2-0.8h-5.4v22.5h5.4c1.6,0,2.9-0.3,4.2-0.8
			c1.2-0.5,2.2-1.3,3.1-2.2s1.5-2.1,1.9-3.5C140.3,40,140.5,38.4,140.5,36.7z"/>
		<path class="st0" d="M160.8,22.5c0,0.6-0.1,1.1-0.4,1.7c-0.2,0.5-0.6,1-1,1.4s-0.9,0.7-1.5,0.9s-1.1,0.3-1.8,0.3
			c-0.6,0-1.2-0.1-1.7-0.3s-1-0.5-1.4-0.9s-0.7-0.8-1-1.4c-0.2-0.5-0.3-1.1-0.3-1.7c0-0.6,0.1-1.2,0.3-1.7c0.2-0.5,0.6-1,1-1.4
			s0.9-0.7,1.4-0.9s1.1-0.3,1.7-0.3c0.6,0,1.2,0.1,1.8,0.3s1,0.5,1.5,0.9s0.7,0.9,1,1.4C160.7,21.3,160.8,21.9,160.8,22.5z
			 M160,29.3v24.9h-7.4V29.3H160z"/>
		<path class="st0" d="M164.7,32.7c1.5-1.3,3.2-2.3,5-3s3.8-1,5.9-1c1.5,0,2.9,0.2,4.1,0.7c1.2,0.5,2.2,1.2,3.1,2
			c0.8,0.9,1.5,1.9,1.9,3.1c0.4,1.2,0.7,2.5,0.7,3.9v15.6h-3.4c-0.7,0-1.2-0.1-1.6-0.3c-0.4-0.2-0.7-0.6-0.9-1.2l-0.5-1.4
			c-0.6,0.5-1.2,1-1.8,1.4s-1.2,0.7-1.8,1s-1.3,0.5-2,0.6s-1.5,0.2-2.3,0.2c-1.1,0-2.2-0.1-3.1-0.4s-1.7-0.7-2.4-1.3
			s-1.1-1.3-1.5-2.1c-0.4-0.9-0.5-1.8-0.5-3c0-0.9,0.2-1.8,0.7-2.7s1.2-1.8,2.3-2.5c1.1-0.8,2.6-1.4,4.5-1.9
			c1.9-0.5,4.2-0.8,7.1-0.9v-1.1c0-1.5-0.3-2.5-0.9-3.2s-1.5-1-2.6-1c-0.9,0-1.6,0.1-2.2,0.3c-0.6,0.2-1.1,0.4-1.5,0.6
			c-0.4,0.2-0.9,0.5-1.3,0.6c-0.4,0.2-0.9,0.3-1.5,0.3c-0.5,0-0.9-0.1-1.3-0.4s-0.6-0.6-0.9-0.9L164.7,32.7z M178.1,44
			c-1.5,0.1-2.7,0.2-3.7,0.4c-1,0.2-1.7,0.4-2.3,0.7c-0.6,0.3-0.9,0.6-1.2,1s-0.3,0.8-0.3,1.2c0,0.8,0.2,1.4,0.7,1.8
			c0.5,0.3,1.1,0.5,2,0.5c1,0,1.8-0.2,2.5-0.5s1.4-0.9,2.2-1.6L178.1,44L178.1,44z"/>
		<path class="st0" d="M196.9,32c0.5-0.4,1-0.9,1.5-1.2c0.5-0.4,1.1-0.7,1.6-1c0.6-0.3,1.2-0.5,1.9-0.6c0.7-0.2,1.4-0.2,2.2-0.2
			c1.4,0,2.6,0.2,3.6,0.7s1.9,1.1,2.7,2c0.7,0.8,1.3,1.8,1.6,3c0.4,1.2,0.6,2.4,0.6,3.8v15.8h-7.4V38.3c0-1.2-0.3-2.2-0.8-2.8
			c-0.6-0.7-1.4-1-2.5-1c-0.8,0-1.6,0.2-2.3,0.5c-0.7,0.3-1.4,0.8-2.1,1.4v17.8h-7.4V29.3h4.6c0.9,0,1.5,0.4,1.8,1.2L196.9,32z"/>
		<path class="st0" d="M216.9,32.7c1.5-1.3,3.2-2.3,5-3s3.8-1,5.9-1c1.5,0,2.9,0.2,4.1,0.7c1.2,0.5,2.2,1.2,3.1,2
			c0.8,0.9,1.5,1.9,1.9,3.1c0.4,1.2,0.7,2.5,0.7,3.9v15.6h-3.4c-0.7,0-1.2-0.1-1.6-0.3c-0.4-0.2-0.7-0.6-0.9-1.2l-0.5-1.4
			c-0.6,0.5-1.2,1-1.8,1.4s-1.2,0.7-1.8,1s-1.3,0.5-2,0.6s-1.5,0.2-2.3,0.2c-1.1,0-2.2-0.1-3.1-0.4s-1.7-0.7-2.4-1.3
			c-0.6-0.6-1.1-1.3-1.5-2.1c-0.4-0.9-0.5-1.8-0.5-3c0-0.9,0.2-1.8,0.7-2.7c0.4-0.9,1.2-1.8,2.3-2.5c1.1-0.8,2.6-1.4,4.5-1.9
			c1.9-0.5,4.2-0.8,7.1-0.9v-1.1c0-1.5-0.3-2.5-0.9-3.2s-1.5-1-2.6-1c-0.9,0-1.6,0.1-2.2,0.3c-0.6,0.2-1.1,0.4-1.5,0.6
			c-0.4,0.2-0.9,0.5-1.3,0.6c-0.4,0.2-0.9,0.3-1.5,0.3c-0.5,0-0.9-0.1-1.3-0.4s-0.6-0.6-0.9-0.9L216.9,32.7z M230.3,44
			c-1.5,0.1-2.7,0.2-3.7,0.4c-1,0.2-1.7,0.4-2.3,0.7c-0.6,0.3-0.9,0.6-1.2,1s-0.3,0.8-0.3,1.2c0,0.8,0.2,1.4,0.7,1.8
			c0.5,0.3,1.1,0.5,2,0.5c1,0,1.8-0.2,2.5-0.5s1.4-0.9,2.2-1.6L230.3,44L230.3,44z"/>
		<path class="st0" d="M140.7,85.1c0.2,0,0.4,0,0.6,0.1s0.4,0.2,0.6,0.4L145,89c-1.4,1.8-3.2,3.2-5.3,4.2c-2.1,0.9-4.6,1.4-7.5,1.4
			c-2.7,0-5-0.5-7.1-1.4s-3.9-2.2-5.4-3.7s-2.6-3.5-3.4-5.7c-0.8-2.2-1.2-4.6-1.2-7.1c0-2.6,0.4-5,1.3-7.2c0.8-2.2,2-4.1,3.6-5.7
			s3.4-2.8,5.5-3.7c2.1-0.9,4.5-1.3,7.1-1.3c1.3,0,2.5,0.1,3.7,0.3c1.2,0.2,2.2,0.6,3.3,1s1.9,0.9,2.8,1.5c0.8,0.6,1.6,1.2,2.3,1.9
			l-2.7,3.7c-0.2,0.2-0.4,0.4-0.6,0.6c-0.2,0.2-0.6,0.3-1,0.3c-0.3,0-0.6-0.1-0.8-0.2s-0.5-0.3-0.8-0.5c-0.3-0.2-0.6-0.4-0.9-0.6
			c-0.3-0.2-0.8-0.4-1.2-0.6c-0.5-0.2-1-0.3-1.7-0.5c-0.6-0.1-1.4-0.2-2.2-0.2c-1.3,0-2.6,0.2-3.7,0.7c-1.1,0.5-2.1,1.2-2.9,2.2
			s-1.4,2.1-1.9,3.5c-0.4,1.4-0.7,3-0.7,4.7c0,1.8,0.2,3.4,0.7,4.8s1.2,2.6,2,3.5c0.8,1,1.8,1.7,2.9,2.2c1.1,0.5,2.3,0.7,3.6,0.7
			c0.7,0,1.4,0,2-0.1c0.6-0.1,1.2-0.2,1.7-0.4s1-0.4,1.5-0.7c0.5-0.3,0.9-0.6,1.4-1.1c0.2-0.2,0.4-0.3,0.6-0.4
			C140.2,85.2,140.4,85.1,140.7,85.1z"/>
		<path class="st0" d="M158.7,68.9c1.9,0,3.6,0.3,5.2,0.9s2.9,1.4,4,2.5c1.1,1.1,2,2.4,2.6,4c0.6,1.6,0.9,3.3,0.9,5.3
			c0,2-0.3,3.8-0.9,5.4c-0.6,1.6-1.5,2.9-2.6,4.1c-1.1,1.1-2.4,2-4,2.6c-1.6,0.6-3.3,0.9-5.2,0.9c-1.9,0-3.6-0.3-5.2-0.9
			s-2.9-1.5-4-2.6s-2-2.5-2.6-4.1s-0.9-3.4-0.9-5.4c0-2,0.3-3.7,0.9-5.3c0.6-1.6,1.5-2.9,2.6-4s2.5-2,4-2.5S156.8,68.9,158.7,68.9z
			 M158.7,89c1.7,0,3-0.6,3.8-1.8c0.8-1.2,1.2-3,1.2-5.5c0-2.5-0.4-4.3-1.2-5.5c-0.8-1.2-2.1-1.8-3.8-1.8c-1.8,0-3,0.6-3.9,1.8
			c-0.8,1.2-1.2,3-1.2,5.5c0,2.5,0.4,4.3,1.2,5.5C155.6,88.4,156.9,89,158.7,89z"/>
		<path class="st0" d="M181.9,72c0.5-0.4,1-0.9,1.5-1.2c0.5-0.4,1.1-0.7,1.6-1s1.2-0.5,1.9-0.6s1.4-0.2,2.2-0.2
			c1.4,0,2.6,0.2,3.6,0.7c1,0.5,1.9,1.1,2.7,2c0.7,0.8,1.3,1.8,1.6,3c0.4,1.2,0.6,2.4,0.6,3.8v15.8h-7.4V78.3c0-1.2-0.3-2.2-0.8-2.8
			c-0.6-0.7-1.4-1-2.5-1c-0.8,0-1.6,0.2-2.3,0.5c-0.7,0.3-1.4,0.8-2.1,1.4v17.8h-7.4V69.3h4.6c0.9,0,1.5,0.4,1.8,1.2L181.9,72z"/>
		<path class="st0" d="M209.3,72c0.5-0.4,1-0.9,1.5-1.2c0.5-0.4,1.1-0.7,1.6-1s1.2-0.5,1.9-0.6s1.4-0.2,2.2-0.2
			c1.4,0,2.6,0.2,3.6,0.7c1,0.5,1.9,1.1,2.7,2c0.7,0.8,1.3,1.8,1.6,3c0.4,1.2,0.6,2.4,0.6,3.8v15.8h-7.4V78.3c0-1.2-0.3-2.2-0.8-2.8
			c-0.6-0.7-1.4-1-2.5-1c-0.8,0-1.6,0.2-2.3,0.5c-0.7,0.3-1.4,0.8-2.1,1.4v17.8h-7.4V69.3h4.6c0.9,0,1.5,0.4,1.8,1.2L209.3,72z"/>
		<path class="st0" d="M241.3,68.9c1.9,0,3.6,0.3,5.2,0.9c1.6,0.6,2.9,1.4,4,2.5c1.1,1.1,2,2.4,2.6,4c0.6,1.6,0.9,3.3,0.9,5.3
			c0,2-0.3,3.8-0.9,5.4c-0.6,1.6-1.5,2.9-2.6,4.1c-1.1,1.1-2.4,2-4,2.6c-1.6,0.6-3.3,0.9-5.2,0.9c-1.9,0-3.6-0.3-5.2-0.9
			c-1.6-0.6-2.9-1.5-4-2.6c-1.1-1.1-2-2.5-2.6-4.1c-0.6-1.6-0.9-3.4-0.9-5.4c0-2,0.3-3.7,0.9-5.3c0.6-1.6,1.5-2.9,2.6-4
			c1.1-1.1,2.5-2,4-2.5S239.4,68.9,241.3,68.9z M241.3,89c1.7,0,3-0.6,3.8-1.8c0.8-1.2,1.2-3,1.2-5.5c0-2.5-0.4-4.3-1.2-5.5
			c-0.8-1.2-2.1-1.8-3.8-1.8c-1.8,0-3,0.6-3.9,1.8c-0.8,1.2-1.2,3-1.2,5.5c0,2.5,0.4,4.3,1.2,5.5C238.2,88.4,239.5,89,241.3,89z"/>
		<path class="st0" d="M265.1,58.2v35.9h-7.4V58.2H265.1z"/>
		<path class="st0" d="M277.6,58.2v35.9h-7.4V58.2H277.6z"/>
		<path class="st0" d="M306.3,69.3L293,100.6c-0.2,0.5-0.5,0.9-0.8,1.1s-0.8,0.3-1.5,0.3h-5.6l4.8-10.1l-9.9-22.7h6.6
			c0.6,0,1,0.1,1.3,0.4s0.5,0.6,0.7,0.9l4.1,10.7c0.4,1,0.7,2,0.9,3c0.2-0.5,0.4-1,0.5-1.5c0.2-0.5,0.4-1,0.6-1.5l3.7-10.7
			c0.1-0.4,0.4-0.7,0.8-0.9c0.4-0.2,0.8-0.4,1.2-0.4L306.3,69.3L306.3,69.3z"/>
	</g>
</g>
</svg>
